<?xml version="1.0" encoding="UTF-8"?>
<svg id="_레이어_1" xmlns="http://www.w3.org/2000/svg" version="1.1" viewBox="0 0 280 50">
  <!-- Generator: Adobe Illustrator 29.8.2, SVG Export Plug-In . SVG Version: 2.1.1 Build 3)  -->
  <path d="M23.63,5.9l-3.5,10.78c-.21.63-.8,1.06-1.46,1.06H7.33c-2.87,0-4.06,3.67-1.74,5.35l9.17,6.66c.54.39.77,1.09.56,1.72l-3.5,10.78c-.89,2.73,2.23,4.99,4.55,3.31l9.17-6.66c.27-.2.59-.29.9-.29V3.85c-1.19,0-2.37.68-2.81,2.04Z"/>
  <path d="M45.56,17.74h-11.33c-.67,0-1.26-.43-1.46-1.06l-3.5-10.78c-.44-1.36-1.63-2.04-2.81-2.04v34.75c.32,0,.63.1.9.29l9.17,6.66c2.32,1.68,5.44-.58,4.55-3.31l-3.5-10.78c-.21-.63.02-1.33.56-1.72l9.17-6.66c2.32-1.68,1.13-5.35-1.74-5.35Z"/>
  <path d="M80.42,5.9l-3.5,10.78c-.21.63-.8,1.06-1.46,1.06h-11.33c-2.87,0-4.06,3.67-1.74,5.35l9.17,6.66c.54.39.77,1.09.56,1.72l-3.5,10.78c-.89,2.73,2.23,4.99,4.55,3.31l9.17-6.66c.27-.2.59-.29.9-.29V3.85c-1.19,0-2.37.68-2.81,2.04Z"/>
  <path d="M102.34,17.74h-11.33c-.67,0-1.26-.43-1.46-1.06l-3.5-10.78c-.44-1.36-1.63-2.04-2.81-2.04v34.75c.32,0,.63.1.9.29l9.17,6.66c2.32,1.68,5.44-.58,4.55-3.31l-3.5-10.78c-.21-.63.02-1.33.56-1.72l9.17-6.66c2.32-1.68,1.13-5.35-1.74-5.35Z"/>
  <path d="M159.13,17.74h-11.33c-.67,0-1.26-.43-1.46-1.06l-3.5-10.78c-.44-1.36-1.63-2.04-2.81-2.04v34.75c.32,0,.63.1.9.29l9.17,6.66c2.32,1.68,5.44-.58,4.55-3.31l-3.5-10.78c-.21-.63.02-1.33.56-1.72l9.17-6.66c2.32-1.68,1.13-5.35-1.74-5.35Z"/>
  <path d="M137.2,5.9l-3.5,10.78c-.21.63-.8,1.06-1.46,1.06h-11.33c-2.87,0-4.06,3.67-1.74,5.35l9.17,6.66c.54.39.77,1.09.56,1.72l-3.5,10.78c-.89,2.73,2.23,4.99,4.55,3.31l9.17-6.66c.27-.2.59-.29.9-.29V3.85c-1.19,0-2.37.68-2.81,2.04Z"/>
  <path d="M215.91,17.74h-11.33c-.67,0-1.26-.43-1.46-1.06l-3.5-10.78c-.44-1.36-1.63-2.04-2.81-2.04v34.75c.32,0,.63.1.9.29l9.17,6.66c2.32,1.68,5.44-.58,4.55-3.31l-3.5-10.78c-.21-.63.02-1.33.56-1.72l9.17-6.66c2.32-1.68,1.13-5.35-1.74-5.35Z"/>
  <path d="M193.99,5.9l-3.5,10.78c-.21.63-.8,1.06-1.46,1.06h-11.33c-2.87,0-4.06,3.67-1.74,5.35l9.17,6.66c.54.39.77,1.09.56,1.72l-3.5,10.78c-.89,2.73,2.23,4.99,4.55,3.31l9.17-6.66c.27-.2.59-.29.9-.29V3.85c-1.19,0-2.37.68-2.81,2.04Z"/>
  <path d="M272.7,17.74h-11.33c-.67,0-1.26-.43-1.46-1.06l-3.5-10.78c-.44-1.36-1.63-2.04-2.81-2.04v34.75c.32,0,.63.1.9.29l9.17,6.66c2.32,1.68,5.44-.58,4.55-3.31l-3.5-10.78c-.21-.63.02-1.33.56-1.72l9.17-6.66c2.32-1.68,1.13-5.35-1.74-5.35Z"/>
  <path d="M250.77,5.9l-3.5,10.78c-.21.63-.8,1.06-1.46,1.06h-11.33c-2.87,0-4.06,3.67-1.74,5.35l9.17,6.66c.54.39.77,1.09.56,1.72l-3.5,10.78c-.89,2.73,2.23,4.99,4.55,3.31l9.17-6.66c.27-.2.59-.29.9-.29V3.85c-1.19,0-2.37.68-2.81,2.04Z"/>
</svg>