<?xml version="1.0" encoding="UTF-8"?>
<svg id="_레이어_1" data-name="레이어_1" xmlns="http://www.w3.org/2000/svg" version="1.1" viewBox="0 0 50 50">
  <!-- Generator: Adobe Illustrator 29.8.2, SVG Export Plug-In . SVG Version: 2.1.1 Build 3)  -->
  <path d="M23.26,1.8c-.77-.78-2.1-.33-2.24.76-.4,3.23-2.31,7.79-5.94,11.58C7.03,22.54-.06,38.77,16.62,46.8c2.51,1.21,5.28,1.8,8.07,1.8h0c.19,0,.29-.24.14-.37-2.41-2.09-13.63-12.6-2.97-19.09.37-.22.82.1.74.52-.48,2.44-.71,8.3,7.25,10.96,0,0,5.42,3.46,4.49,7.27-.07.3.21.56.49.44,2.48-1.05,10.29-5.6,8.43-20.78,0,0-.81-7.31-4.01-11.65-.48-.65-1.51-.47-1.76.31-.75,2.34-2.3,6.42-4.42,7.95,0,0,1.4-11.78-7-19.6-.43-.41-.88-.8-1.29-1.23l-1.52-1.53Z"/>
</svg>